<svg xmlns="http://www.w3.org/2000/svg" viewBox="0 0 1200 800">
  <defs>
    <linearGradient id="bg" x1="0" y1="0" x2="1" y2="1">
      <stop offset="0%" stop-color="#f4efe7"/>
      <stop offset="100%" stop-color="#e8f2ec"/>
    </linearGradient>
    <linearGradient id="card" x1="0" y1="0" x2="1" y2="1">
      <stop offset="0%" stop-color="#ffffff"/>
      <stop offset="100%" stop-color="#f8fbf9"/>
    </linearGradient>
  </defs>
  <rect width="1200" height="800" fill="url(#bg)"/>
  <circle cx="980" cy="120" r="140" fill="#d9eadf"/>
  <circle cx="180" cy="690" r="170" fill="#ecd6ca"/>
  <rect x="180" y="130" width="840" height="540" rx="38" fill="url(#card)" stroke="#d8e1db" stroke-width="4"/>
  <rect x="230" y="190" width="300" height="70" rx="14" fill="#eff5f2"/>
  <rect x="560" y="190" width="410" height="70" rx="14" fill="#f8efea"/>
  <rect x="230" y="290" width="740" height="140" rx="20" fill="#ffffff" stroke="#e1e9e4" stroke-width="3"/>
  <rect x="230" y="455" width="355" height="165" rx="20" fill="#f3f7f5"/>
  <rect x="615" y="455" width="355" height="165" rx="20" fill="#faf3ef"/>
  <circle cx="280" cy="225" r="14" fill="#3b8f61"/>
  <circle cx="610" cy="225" r="14" fill="#d18b6a"/>
  <circle cx="940" cy="225" r="14" fill="#3b8f61"/>
  <text x="315" y="233" font-size="28" font-family="Arial, sans-serif" fill="#364036">Meal Plan</text>
  <text x="645" y="233" font-size="28" font-family="Arial, sans-serif" fill="#364036">Family Dashboard</text>
  <text x="260" y="360" font-size="54" font-family="Arial, sans-serif" font-weight="700" fill="#293329">HOME HARMONY</text>
  <text x="260" y="403" font-size="28" font-family="Arial, sans-serif" fill="#5b665f">Meals, groceries, chores, tasks and wellness in one place.</text>
  <text x="260" y="520" font-size="26" font-family="Arial, sans-serif" fill="#33473a">Weekly meal planning</text>
  <text x="260" y="560" font-size="26" font-family="Arial, sans-serif" fill="#33473a">Auto grocery quantities</text>
  <text x="260" y="600" font-size="26" font-family="Arial, sans-serif" fill="#33473a">Kid-friendly choices</text>
  <text x="645" y="520" font-size="26" font-family="Arial, sans-serif" fill="#33473a">Chores and house tasks</text>
  <text x="645" y="560" font-size="26" font-family="Arial, sans-serif" fill="#33473a">Macros and nutrition</text>
  <text x="645" y="600" font-size="26" font-family="Arial, sans-serif" fill="#33473a">Shared family workflow</text>
</svg>
