<svg xmlns="http://www.w3.org/2000/svg" viewBox="0 0 512 512" role="img" aria-labelledby="title desc">
  <title id="title">Home Harmony App Icon</title>
  <desc id="desc">Rounded square icon with a house and letter H mark.</desc>
  <defs>
    <linearGradient id="bg" x1="0" y1="0" x2="1" y2="1">
      <stop offset="0%" stop-color="#2f7f61"/>
      <stop offset="100%" stop-color="#d28b67"/>
    </linearGradient>
  </defs>

  <rect x="24" y="24" width="464" height="464" rx="112" fill="url(#bg)"/>

  <path d="M112 238 256 126l144 112v140c0 14-11 26-26 26H138c-15 0-26-12-26-26V238Z" fill="#fff7ee"/>

  <path d="M196 224h120c11 0 20 9 20 20v132c0 11-9 20-20 20H196c-11 0-20-9-20-20V244c0-11 9-20 20-20Z" fill="#2f7f61"/>
  <rect x="206" y="258" width="28" height="104" rx="10" fill="#fff7ee"/>
  <rect x="278" y="258" width="28" height="104" rx="10" fill="#fff7ee"/>
  <rect x="234" y="292" width="44" height="28" rx="10" fill="#fff7ee"/>
</svg>
