<svg xmlns="http://www.w3.org/2000/svg" viewBox="0 0 64 64">
  <defs>
    <linearGradient id="hhg" x1="0" y1="0" x2="1" y2="1">
      <stop offset="0%" stop-color="#3b8f61" />
      <stop offset="100%" stop-color="#d18b6a" />
    </linearGradient>
  </defs>
  <rect x="4" y="4" width="56" height="56" rx="14" fill="url(#hhg)" />
  <path d="M17 30.5 32 18l15 12.5V47a2 2 0 0 1-2 2H19a2 2 0 0 1-2-2Z" fill="#fff7ed"/>
  <path d="M27.2 41.8a4.9 4.9 0 0 0 4.8-4.8 4.9 4.9 0 0 0 4.8 4.8c2.4 0 4.4-1.9 4.4-4.3 0-4.2-4.1-6.4-9.2-11.5-5.1 5.1-9.2 7.3-9.2 11.5 0 2.4 2 4.3 4.4 4.3Z" fill="#3b8f61"/>
</svg>
