<svg width="1200" height="700" viewBox="0 0 1200 700" fill="none" xmlns="http://www.w3.org/2000/svg">
  <defs>
    <linearGradient id="bg" x1="0" y1="0" x2="1200" y2="700" gradientUnits="userSpaceOnUse">
      <stop stop-color="#0F3D2E"/>
      <stop offset="1" stop-color="#1F6A4D"/>
    </linearGradient>
  </defs>
  <rect width="1200" height="700" fill="url(#bg)"/>
  <rect x="140" y="120" width="920" height="460" rx="22" fill="#F5F8F6"/>
  <rect x="180" y="170" width="240" height="44" rx="10" fill="#DCE9E2"/>
  <rect x="440" y="170" width="240" height="44" rx="10" fill="#DCE9E2"/>
  <rect x="700" y="170" width="240" height="44" rx="10" fill="#DCE9E2"/>
  <rect x="180" y="245" width="240" height="295" rx="14" fill="#FFFFFF"/>
  <rect x="440" y="245" width="240" height="295" rx="14" fill="#FFFFFF"/>
  <rect x="700" y="245" width="240" height="295" rx="14" fill="#FFFFFF"/>
  <circle cx="222" cy="290" r="14" fill="#1F6A4D"/>
  <rect x="250" y="280" width="120" height="20" rx="8" fill="#D2DED8"/>
  <circle cx="222" cy="340" r="14" fill="#1F6A4D"/>
  <rect x="250" y="330" width="100" height="20" rx="8" fill="#D2DED8"/>
  <circle cx="482" cy="290" r="14" fill="#1F6A4D"/>
  <rect x="510" y="280" width="120" height="20" rx="8" fill="#D2DED8"/>
  <circle cx="742" cy="290" r="14" fill="#1F6A4D"/>
  <rect x="770" y="280" width="120" height="20" rx="8" fill="#D2DED8"/>
</svg>
