<svg width="1200" height="700" viewBox="0 0 1200 700" fill="none" xmlns="http://www.w3.org/2000/svg">
  <defs>
    <linearGradient id="lifebg" x1="0" y1="0" x2="1200" y2="700" gradientUnits="userSpaceOnUse">
      <stop stop-color="#4A2655"/>
      <stop offset="1" stop-color="#8B4D9B"/>
    </linearGradient>
  </defs>
  <rect width="1200" height="700" fill="url(#lifebg)"/>
  <rect x="150" y="110" width="900" height="480" rx="26" fill="#FBF7FC"/>
  <rect x="205" y="170" width="280" height="360" rx="16" fill="#FFFFFF"/>
  <rect x="510" y="170" width="280" height="360" rx="16" fill="#FFFFFF"/>
  <rect x="815" y="170" width="180" height="360" rx="16" fill="#FFFFFF"/>
  <circle cx="345" cy="275" r="72" fill="#E7D7EC"/>
  <path d="M345 220V275L385 300" stroke="#8B4D9B" stroke-width="12" stroke-linecap="round" stroke-linejoin="round"/>
  <rect x="260" y="390" width="170" height="20" rx="8" fill="#DCCFE2"/>
  <rect x="550" y="235" width="200" height="20" rx="8" fill="#DCCFE2"/>
  <rect x="550" y="285" width="160" height="20" rx="8" fill="#DCCFE2"/>
  <rect x="550" y="335" width="190" height="20" rx="8" fill="#DCCFE2"/>
  <rect x="850" y="220" width="110" height="16" rx="7" fill="#DCCFE2"/>
  <rect x="850" y="260" width="130" height="16" rx="7" fill="#DCCFE2"/>
  <rect x="850" y="300" width="90" height="16" rx="7" fill="#DCCFE2"/>
</svg>
